<svg width="517" height="495" viewBox="0 0 517 495" fill="none" xmlns="http://www.w3.org/2000/svg">
<path d="M477 440H40C22.3269 440 8 425.673 8 408V192C8 174.327 22.3269 160 40 160H390.184C398.757 160 406.972 163.44 412.987 169.55L499.804 257.734C505.697 263.721 509 271.784 509 280.184V408C509 425.673 494.673 440 477 440Z" fill="white" stroke="black" stroke-width="16"/>
<circle cx="103" cy="434" r="53" fill="white" stroke="black" stroke-width="16"/>
<circle cx="404" cy="434" r="53" fill="white" stroke="black" stroke-width="16"/>
<path d="M42 160V135.193C42 121.133 51.1776 108.72 64.6202 104.599L329.12 23.5067C349.691 17.1999 370.5 32.5849 370.5 54.1012V160H42Z" fill="#F2C94C" stroke="black" stroke-width="16"/>
<path d="M42 239C42 216.909 59.9086 199 82 199H299V246C299 268.091 281.091 286 259 286H42V239Z" fill="#F2C94C"/>
<path d="M292 199C292 194.582 295.582 191 300 191C304.418 191 308 194.582 308 199H292ZM42 292C37.5817 292 34 288.418 34 284C34 279.582 37.5817 276 42 276V292ZM308 199V244H292V199H308ZM260 292H42V276H260V292ZM308 244C308 270.51 286.51 292 260 292V276C277.673 276 292 261.673 292 244H308Z" fill="black"/>
<path d="M353 197H371.296C381.985 197 392.229 201.278 399.743 208.88L474 284H393C370.909 284 353 266.091 353 244V197Z" fill="#F2C94C"/>
<path d="M361 199C361 194.582 357.418 191 353 191C348.582 191 345 194.582 345 199H361ZM465 292C469.418 292 473 288.418 473 284C473 279.582 469.418 276 465 276V292ZM345 199V244H361V199H345ZM393 292H465V276H393V292ZM345 244C345 270.51 366.49 292 393 292V276C375.327 276 361 261.673 361 244H345Z" fill="black"/>
</svg>
